<svg width="198.000000" height="24.000000" viewBox="0 0 198 24" fill="none" xmlns="http://www.w3.org/2000/svg" xmlns:xlink="http://www.w3.org/1999/xlink">
	<desc>
			Created with Pixso.
	</desc>
	<defs/>
	<path id="PURITY UI DASHBOARD" d="M165.55 16.43C166.57 15.47 167.08 14.08 167.08 12.27C167.08 10.43 166.57 9.04 165.55 8.12Q165.45 8.01 165.34 7.91Q164.22 6.94 162.25 6.94Q160.29 6.94 159.17 7.91Q159.05 8.01 158.95 8.12C157.93 9.04 157.42 10.43 157.42 12.27C157.42 14.08 157.93 15.47 158.95 16.43Q159.05 16.54 159.17 16.63Q160.29 17.6 162.25 17.6Q164.22 17.6 165.34 16.63Q165.45 16.54 165.55 16.43ZM130.12 15.25C129.94 15.02 129.81 14.67 129.75 14.21L127.74 14.21Q127.74 15.18 128.16 15.89Q128.43 16.34 128.86 16.69Q129.99 17.58 131.96 17.58C133.25 17.58 134.24 17.28 134.94 16.68C135.65 16.06 136 15.3 136 14.38Q136 13.43 135.56 12.8Q135.37 12.53 135.1 12.32C134.71 12.02 134.14 11.77 133.38 11.59L131.64 11.17C130.97 11.01 130.53 10.87 130.33 10.76C130.01 10.58 129.85 10.31 129.85 9.95C129.85 9.56 130.01 9.25 130.33 9.03C130.66 8.81 131.09 8.7 131.63 8.7C132.12 8.7 132.53 8.79 132.86 8.96C133.35 9.21 133.61 9.64 133.65 10.25L135.67 10.25C135.64 9.18 135.24 8.36 134.49 7.8C133.74 7.24 132.84 6.95 131.78 6.95Q129.87 6.95 128.89 7.85C128.23 8.45 127.9 9.2 127.9 10.1C127.9 11.09 128.24 11.81 128.92 12.28C129.32 12.56 130.04 12.82 131.09 13.05L132.16 13.29Q133.1 13.5 133.53 13.76C133.83 13.95 133.97 14.2 133.97 14.54C133.97 15.11 133.68 15.49 133.09 15.7Q132.62 15.87 131.88 15.87C131.05 15.87 130.46 15.66 130.12 15.25ZM41.96 12.93Q42.82 12.19 42.82 10.44Q42.82 8.96 42.08 8.19Q42 8.1 41.92 8.03Q41.87 7.99 41.82 7.95Q40.94 7.25 39.5 7.25L35.11 7.25L35.11 17.32L37.2 17.32L37.2 13.7L39.34 13.7Q41.02 13.7 41.92 12.96Q41.94 12.95 41.96 12.93ZM46.54 7.25L44.4 7.25L44.4 13.44Q44.4 15.05 44.9 15.94C45.52 17.04 46.71 17.58 48.45 17.58Q50.54 17.58 51.56 16.54Q51.81 16.28 52 15.94C52.33 15.35 52.5 14.51 52.5 13.44L52.5 7.25L50.36 7.25L50.36 13.44Q50.36 14.48 50.11 14.96Q50.02 15.17 49.87 15.33Q49.42 15.81 48.45 15.81Q47.48 15.81 47.02 15.32Q46.88 15.17 46.79 14.96Q46.54 14.48 46.54 13.44L46.54 7.25ZM61.13 7.51C60.76 7.35 60.21 7.26 59.51 7.25L54.56 7.25L54.56 17.32L56.62 17.32L56.62 13.37L58.8 13.37C59.42 13.37 59.84 13.48 60.06 13.69C60.29 13.91 60.41 14.34 60.42 14.98L60.43 15.92C60.43 16.21 60.46 16.5 60.52 16.78C60.55 16.92 60.59 17.1 60.66 17.32L62.97 17.32L62.97 17.07C62.77 16.95 62.64 16.76 62.59 16.5C62.55 16.33 62.54 16.02 62.54 15.56L62.54 14.88Q62.54 13.82 62.24 13.31Q62.23 13.3 62.22 13.28Q61.93 12.78 61.26 12.51C61.81 12.32 62.21 11.99 62.45 11.53C62.69 11.07 62.82 10.6 62.82 10.12Q62.82 9.52 62.62 9.06C62.5 8.75 62.32 8.47 62.1 8.21C61.84 7.9 61.52 7.67 61.13 7.51ZM64.47 17.32L66.56 17.32L66.56 7.25L64.47 7.25L64.47 17.32ZM75.85 9.03L75.85 7.25L67.69 7.25L67.69 9.03L70.72 9.03L70.72 17.32L72.84 17.32L72.84 9.03L75.85 9.03ZM85.22 7.25L82.84 7.25L80.83 11.64L78.74 7.25L76.26 7.25L79.75 13.54L79.75 17.32L81.85 17.32L81.85 13.54L85.22 7.25ZM92.22 7.25L90.08 7.25L90.08 13.44C90.08 14.51 90.24 15.35 90.58 15.94C91.2 17.04 92.39 17.58 94.13 17.58C95.88 17.58 97.06 17.04 97.68 15.94C98.01 15.35 98.18 14.51 98.18 13.44L98.18 7.25L96.04 7.25L96.04 13.44Q96.04 14.48 95.79 14.96Q95.7 15.17 95.55 15.33Q95.09 15.81 94.13 15.81C93.27 15.81 92.72 15.52 92.46 14.96Q92.22 14.48 92.22 13.44L92.22 7.25ZM100.03 17.32L102.12 17.32L102.12 7.25L100.03 7.25L100.03 17.32ZM113.89 7.47C113.47 7.33 112.95 7.26 112.33 7.25L107.99 7.25L107.99 17.32L112.33 17.32C113.85 17.32 114.98 16.7 115.71 15.44C116.24 14.52 116.51 13.38 116.51 12.04C116.51 11.51 116.45 10.96 116.32 10.37C116.19 9.79 115.95 9.25 115.6 8.75C115.17 8.13 114.59 7.7 113.89 7.47ZM123.37 7.25L120.99 7.25L117.39 17.32L119.6 17.32L120.29 15.25L124 15.25L124.65 17.32L126.94 17.32L123.37 7.25ZM137.55 7.25L137.55 17.32L139.63 17.32L139.63 12.83L143.57 12.83L143.57 17.32L145.66 17.32L145.66 7.25L143.57 7.25L143.57 11.09L139.63 11.09L139.63 7.25L137.55 7.25ZM155.06 8.11Q154.26 7.27 152.61 7.25L147.71 7.25L147.71 17.32L152.28 17.32C152.79 17.32 153.27 17.28 153.71 17.19C154.15 17.1 154.53 16.93 154.85 16.68C155.14 16.47 155.38 16.2 155.57 15.89Q155.71 15.67 155.81 15.44Q156.02 14.91 156.02 14.28C156.02 13.7 155.89 13.21 155.63 12.81C155.37 12.4 154.98 12.1 154.47 11.92C154.8 11.74 155.06 11.55 155.23 11.34C155.54 10.97 155.7 10.48 155.7 9.86C155.7 9.26 155.54 8.75 155.23 8.32Q155.15 8.21 155.06 8.11ZM173.95 7.25L171.58 7.25L167.98 17.32L170.18 17.32L170.88 15.25L174.59 15.25L175.24 17.32L177.52 17.32L173.95 7.25ZM185.43 7.51C185.05 7.35 184.5 7.26 183.8 7.25L178.86 7.25L178.86 17.32L180.91 17.32L180.91 13.37L183.09 13.37C183.71 13.37 184.13 13.48 184.35 13.69C184.58 13.91 184.7 14.34 184.71 14.98L184.72 15.92C184.73 16.21 184.76 16.5 184.81 16.78C184.84 16.92 184.88 17.1 184.95 17.32L187.26 17.32L187.26 17.07C187.06 16.95 186.94 16.76 186.88 16.5C186.84 16.33 186.83 16.02 186.83 15.56L186.83 14.88C186.83 14.18 186.73 13.65 186.53 13.31Q186.52 13.3 186.52 13.28Q186.23 12.78 185.55 12.51C186.1 12.32 186.5 11.99 186.74 11.53C186.99 11.07 187.11 10.6 187.11 10.12C187.11 9.72 187.04 9.37 186.92 9.06C186.79 8.75 186.61 8.47 186.4 8.21C186.13 7.9 185.81 7.67 185.43 7.51ZM194.82 7.47C194.41 7.33 193.89 7.26 193.27 7.25L188.93 7.25L188.93 17.32L193.27 17.32C194.79 17.32 195.91 16.7 196.64 15.44C197.18 14.52 197.45 13.38 197.45 12.04C197.45 11.51 197.39 10.96 197.26 10.37C197.13 9.79 196.89 9.25 196.54 8.75C196.1 8.13 195.53 7.7 194.82 7.47ZM164.23 14.9C163.75 15.51 163.09 15.82 162.25 15.82C161.42 15.82 160.75 15.51 160.25 14.9C159.76 14.28 159.51 13.41 159.51 12.27C159.51 11.14 159.76 10.26 160.25 9.65C160.75 9.03 161.42 8.73 162.25 8.73C163.09 8.73 163.75 9.03 164.23 9.65C164.73 10.27 164.97 11.14 164.97 12.27Q164.97 13.98 164.23 14.9ZM40.32 9.33C40.6 9.56 40.74 9.93 40.74 10.45Q40.74 11.2 40.36 11.56Q40.34 11.58 40.32 11.6C40.04 11.84 39.66 11.97 39.16 11.97L37.2 11.97L37.2 9L39.16 9Q39.91 9 40.32 9.33ZM56.62 11.71L56.62 9L59.07 9Q59.75 9 60.09 9.18C60.5 9.39 60.7 9.8 60.7 10.41Q60.7 10.97 60.42 11.29Q60.28 11.45 60.07 11.54Q59.72 11.71 59.01 11.71L56.62 11.71ZM110.03 15.57L110.03 9L111.97 9C112.93 9 113.57 9.27 113.89 9.83C114.21 10.37 114.37 11.16 114.37 12.18C114.37 12.93 114.27 13.57 114.05 14.1C113.66 15.08 112.97 15.57 111.97 15.57L110.03 15.57ZM149.72 11.22L149.72 9L151.94 9C152.42 9 152.82 9.05 153.14 9.16C153.5 9.31 153.69 9.62 153.69 10.09C153.69 10.51 153.55 10.81 153.27 10.97C153 11.14 152.64 11.22 152.2 11.22L149.72 11.22ZM180.91 11.71L180.91 9L183.36 9Q184.04 9 184.39 9.18C184.79 9.39 184.99 9.8 184.99 10.41C184.99 10.97 184.78 11.35 184.37 11.54Q184.01 11.71 183.3 11.71L180.91 11.71ZM190.97 15.57L190.97 9L192.91 9C193.87 9 194.51 9.27 194.82 9.83C195.15 10.37 195.31 11.16 195.31 12.18C195.31 12.93 195.2 13.57 194.99 14.1C194.6 15.08 193.9 15.57 192.91 15.57L190.97 15.57ZM123.42 13.52L120.86 13.52L122.16 9.55L123.42 13.52ZM174 13.52L171.45 13.52L172.74 9.55L174 13.52ZM149.72 15.57L149.72 12.89L152.23 12.89C152.67 12.89 153.01 12.95 153.25 13.06C153.68 13.26 153.9 13.62 153.9 14.14C153.9 14.76 153.67 15.18 153.23 15.4C152.98 15.52 152.64 15.57 152.2 15.57L149.72 15.57Z" fill="#FFFFFF" fill-opacity="1.000000" fill-rule="evenodd"/>
	<path id="Shape" d="M20.87 0L1.12 0C0.5 0 0 0.5 0 1.12L0 10.52C0 11.14 0.5 11.65 1.12 11.65L5.17 11.65L5.17 20.87C5.17 21.17 5.29 21.46 5.5 21.67C5.71 21.88 5.99 22 6.29 22L15.7 22C16.32 22 16.82 21.49 16.82 20.87L16.82 11.65L20.87 11.65C21.17 11.65 21.46 11.53 21.67 11.32C21.88 11.11 22 10.83 22 10.53L22 1.12C22 0.82 21.88 0.53 21.67 0.32C21.46 0.11 21.17 0 20.87 0ZM1.3 1.3L10.34 1.3L10.34 10.35L1.3 10.35L1.3 1.3ZM15.52 20.7L6.47 20.7L6.47 11.65L15.52 11.65L15.52 20.7ZM20.69 10.35L11.65 10.35L11.65 1.3L20.69 1.3L20.69 10.35Z" fill="#FFFFFF" fill-opacity="1.000000" fill-rule="nonzero"/>
	<path id="Path" d="M7.44 7.32C7.7 7.56 8.1 7.55 8.35 7.31C8.6 7.06 8.6 6.66 8.36 6.4L6.29 4.32C6.03 4.07 5.62 4.07 5.37 4.32L3.28 6.4C3.11 6.56 3.04 6.81 3.1 7.04C3.16 7.27 3.34 7.45 3.57 7.5C3.8 7.56 4.04 7.49 4.2 7.32L5.82 5.7L7.44 7.32Z" fill="#FFFFFF" fill-opacity="1.000000" fill-rule="nonzero"/>
	<path id="Path" d="M14.55 7.32L16.17 5.7L17.79 7.32C18.04 7.56 18.44 7.55 18.69 7.31C18.94 7.06 18.95 6.66 18.71 6.4L16.63 4.32C16.37 4.07 15.96 4.07 15.71 4.32L13.63 6.4C13.39 6.66 13.4 7.06 13.65 7.31C13.9 7.55 14.3 7.56 14.55 7.32Z" fill="#FFFFFF" fill-opacity="1.000000" fill-rule="nonzero"/>
	<path id="Path" d="M9.38 14.67C9.12 14.43 8.72 14.44 8.47 14.69C8.22 14.94 8.22 15.34 8.46 15.59L10.54 17.67C10.66 17.79 10.82 17.86 11 17.86C11.17 17.86 11.33 17.79 11.46 17.67L13.53 15.59C13.7 15.43 13.76 15.19 13.7 14.96C13.64 14.74 13.47 14.56 13.24 14.5C13.02 14.44 12.78 14.51 12.61 14.67L11 16.29L9.38 14.67Z" fill="#FFFFFF" fill-opacity="1.000000" fill-rule="nonzero"/>
</svg>
